<?xml version="1.0" encoding="UTF-8" standalone="no"?>
<svg
   xmlns:dc="http://purl.org/dc/elements/1.1/"
   xmlns:cc="http://creativecommons.org/ns#"
   xmlns:rdf="http://www.w3.org/1999/02/22-rdf-syntax-ns#"
   xmlns:svg="http://www.w3.org/2000/svg"
   xmlns="http://www.w3.org/2000/svg"
   xmlns:sodipodi="http://sodipodi.sourceforge.net/DTD/sodipodi-0.dtd"
   xmlns:inkscape="http://www.inkscape.org/namespaces/inkscape"
   width="210mm"
   height="297mm"
   viewBox="0 0 210 297"
   version="1.1"
   id="svg8"
   inkscape:version="1.0.2 (e86c870879, 2021-01-15)"
   sodipodi:docname="huella.svg">
  <defs
     id="defs2" />
  <sodipodi:namedview
     id="base"
     pagecolor="#ffffff"
     bordercolor="#666666"
     borderopacity="1.0"
     inkscape:pageopacity="0.0"
     inkscape:pageshadow="2"
     inkscape:zoom="0.4"
     inkscape:cx="214.56177"
     inkscape:cy="777.4042"
     inkscape:document-units="mm"
     inkscape:current-layer="g1067"
     inkscape:document-rotation="0"
     showgrid="false"
     inkscape:window-width="1920"
     inkscape:window-height="1017"
     inkscape:window-x="0"
     inkscape:window-y="26"
     inkscape:window-maximized="1" />
  <metadata
     id="metadata5">
    <rdf:RDF>
      <cc:Work
         rdf:about="">
        <dc:format>image/svg+xml</dc:format>
        <dc:type
           rdf:resource="http://purl.org/dc/dcmitype/StillImage" />
        <dc:title></dc:title>
      </cc:Work>
    </rdf:RDF>
  </metadata>
  <g
     inkscape:label="Capa 1"
     inkscape:groupmode="layer"
     id="layer1">
    <g
       id="g1067"
       transform="translate(-290.49432,-52.218126)">
      <path
         style="fill:#b9b9b9;fill-opacity:1;stroke-width:0.352778"
         d="m 163.4243,269.27903 c 0.33955,-0.0887 0.89518,-0.0887 1.23472,0 0.33955,0.0887 0.0617,0.16134 -0.61736,0.16134 -0.67909,0 -0.95691,-0.0726 -0.61736,-0.16134 z M 16.387572,257.0868 l -1.394513,-1.49931 1.499306,1.39451 c 0.824618,0.76698 1.499305,1.44167 1.499305,1.49931 0,0.2669 -0.307216,-1.8e-4 -1.604098,-1.39451 z m 86.557398,-0.1528 c 0.25465,-0.1019 0.55893,-0.0894 0.67615,0.0278 0.11723,0.11722 -0.0911,0.2006 -0.46302,0.18528 -0.41097,-0.0169 -0.49456,-0.10052 -0.21313,-0.21313 z M 46.831252,239.30246 c 0.242535,-0.0979 0.63941,-0.0979 0.881945,0 0.242535,0.0979 0.0441,0.17794 -0.440972,0.17794 -0.48507,0 -0.683507,-0.0801 -0.440973,-0.17794 z m 117.658098,-0.0108 c 0.34324,-0.0894 0.81949,-0.0836 1.05833,0.0131 0.23884,0.0966 -0.042,0.16982 -0.62407,0.16263 -0.58209,-0.007 -0.7775,-0.0863 -0.43426,-0.1757 z M 101.88663,226.9479 c 0.25466,-0.10191 0.55894,-0.0894 0.67616,0.0278 0.11722,0.11722 -0.0911,0.2006 -0.46302,0.18529 -0.41097,-0.0169 -0.49456,-0.10052 -0.21314,-0.21314 z m 76.64677,-3.49258 c 0.0169,-0.41097 0.10052,-0.49456 0.21314,-0.21314 0.1019,0.25466 0.0894,0.55893 -0.0278,0.67616 -0.11722,0.11722 -0.2006,-0.0911 -0.18528,-0.46302 z m 30.33889,-1.41111 c 0.0169,-0.41097 0.10052,-0.49456 0.21314,-0.21314 0.1019,0.25466 0.0894,0.55893 -0.0278,0.67616 -0.11722,0.11722 -0.2006,-0.0911 -0.18528,-0.46302 z M 32.836188,220.98587 c 0.01693,-0.41096 0.100521,-0.49455 0.213134,-0.21313 0.101907,0.25466 0.08938,0.55893 -0.02783,0.67615 -0.117228,0.11723 -0.200603,-0.0911 -0.185286,-0.46302 z m 146.049992,-1.76388 c 0.0169,-0.41097 0.10052,-0.49456 0.21314,-0.21314 0.1019,0.25466 0.0894,0.55893 -0.0278,0.67616 -0.11722,0.11722 -0.2006,-0.0911 -0.18528,-0.46302 z m 0.0279,-8.26088 c 0,-0.48507 0.0801,-0.68351 0.17794,-0.44098 0.0979,0.24254 0.0979,0.63941 0,0.88195 -0.0979,0.24253 -0.17794,0.0441 -0.17794,-0.44097 z M 32.836188,208.99143 c 0.01693,-0.41097 0.100521,-0.49456 0.213134,-0.21314 0.101907,0.25466 0.08938,0.55894 -0.02783,0.67616 -0.117228,0.11723 -0.200603,-0.0911 -0.185286,-0.46302 z m 176.036102,-0.35278 c 0.0169,-0.41097 0.10052,-0.49456 0.21314,-0.21313 0.1019,0.25466 0.0894,0.55893 -0.0278,0.67615 -0.11722,0.11723 -0.2006,-0.0911 -0.18528,-0.46302 z m -221.429413,-33.39629 -0.672038,-0.79375 0.79375,0.67204 c 0.745927,0.63155 0.954348,0.91546 0.672038,0.91546 -0.06694,0 -0.424131,-0.35719 -0.79375,-0.79375 z m 238.672933,-1.76389 c 0.86501,-0.92163 1.61907,-1.67569 1.67569,-1.67569 0.2649,0 -0.0152,0.31673 -1.57276,1.77863 l -1.67569,1.57275 z m -242.035803,-1.5875 c -0.43881,-0.55953 -0.426333,-0.572 0.133193,-0.13319 0.339548,0.26629 0.617361,0.5441 0.617361,0.61736 0,0.29035 -0.289696,0.10347 -0.750554,-0.48417 z m 42.113746,-10.20915 c 0.339549,-0.0887 0.895174,-0.0887 1.234723,0 0.339548,0.0887 0.06174,0.16134 -0.617362,0.16134 -0.679097,0 -0.956909,-0.0726 -0.617361,-0.16134 z m 158.242877,0.002 c 0.25466,-0.10191 0.55893,-0.0894 0.67616,0.0278 0.11722,0.11722 -0.0911,0.2006 -0.46302,0.18529 -0.41097,-0.0169 -0.49456,-0.10052 -0.21314,-0.21314 z m -30.12987,-5.1388 -0.67204,-0.79375 0.79375,0.67204 c 0.43656,0.36962 0.79375,0.7268 0.79375,0.79375 0,0.28231 -0.28391,0.0739 -0.91546,-0.67204 z m -6.35,-6.35 -0.67204,-0.79375 0.79375,0.67204 c 0.74593,0.63155 0.95435,0.91546 0.67204,0.91546 -0.0669,0 -0.42413,-0.35719 -0.79375,-0.79375 z m -83.574814,-0.61736 c 0.351187,-0.38806 0.717896,-0.70556 0.81491,-0.70556 0.09701,0 -0.110945,0.3175 -0.462132,0.70556 -0.351187,0.38805 -0.717896,0.70555 -0.81491,0.70555 -0.09701,0 0.110945,-0.3175 0.462132,-0.70555 z m -19.551314,-11.1419 c 0.01693,-0.41097 0.100521,-0.49456 0.213134,-0.21313 0.101907,0.25465 0.08938,0.55893 -0.02783,0.67615 -0.117224,0.11723 -0.200603,-0.0911 -0.185286,-0.46302 z m -49.7416643,-9.87777 c 0.016933,-0.41097 0.1005205,-0.49456 0.2131342,-0.21314 0.101907,0.25466 0.089376,0.55893 -0.027834,0.67616 -0.1172281,0.11722 -0.2006036,-0.0911 -0.185286,-0.46302 z M 71.878473,115.1247 c 0.242535,-0.0979 0.63941,-0.0979 0.881945,0 0.242535,0.0979 0.0441,0.17794 -0.440972,0.17794 -0.48507,0 -0.683507,-0.0801 -0.440973,-0.17794 z m 2.469445,0 c 0.242535,-0.0979 0.639409,-0.0979 0.881944,0 0.242535,0.0979 0.0441,0.17794 -0.440972,0.17794 -0.485069,0 -0.683507,-0.0801 -0.440972,-0.17794 z m 62.463712,-0.007 c 0.25466,-0.1019 0.55893,-0.0894 0.67616,0.0278 0.11722,0.11722 -0.0911,0.2006 -0.46302,0.18528 -0.41097,-0.0169 -0.49456,-0.10052 -0.21314,-0.21313 z m 2.4474,0.007 c 0.24253,-0.0979 0.63941,-0.0979 0.88194,0 0.24254,0.0979 0.0441,0.17794 -0.44097,0.17794 -0.48507,0 -0.68351,-0.0801 -0.44097,-0.17794 z m 39.5993,-2.76497 c 0.4557,-0.48507 0.90792,-0.88195 1.00493,-0.88195 0.097,0 -0.19645,0.39688 -0.65215,0.88195 -0.4557,0.48507 -0.90792,0.88194 -1.00494,0.88194 -0.097,0 0.19646,-0.39687 0.65216,-0.88194 z m 31.90419,-4.49792 -1.03614,-1.14653 1.14653,1.03614 c 0.63059,0.56988 1.14653,1.08582 1.14653,1.14653 0,0.27254 -0.29109,0.0326 -1.25692,-1.03614 z M 55.341113,106.62709 c -0.43881,-0.55953 -0.426332,-0.57201 0.133195,-0.1332 0.587639,0.46086 0.774516,0.75056 0.484166,0.75056 -0.07325,0 -0.351067,-0.27781 -0.617361,-0.61736 z m -40.237811,-3.50418 c 0.25466,-0.10191 0.558931,-0.0894 0.676159,0.0278 0.117225,0.11723 -0.09114,0.20061 -0.463021,0.18529 -0.410968,-0.0169 -0.494559,-0.10052 -0.213138,-0.21314 z M 202.78107,73.136801 c 0.25466,-0.101907 0.55894,-0.08938 0.67616,0.02783 0.11722,0.117224 -0.0911,0.200603 -0.46302,0.185286 -0.41097,-0.01693 -0.49456,-0.100521 -0.21314,-0.213134 z M 129.64583,53.269456 c 0.35119,-0.388056 0.7179,-0.705556 0.81491,-0.705556 0.097,0 -0.11094,0.3175 -0.46213,0.705556 -0.35119,0.388055 -0.7179,0.705555 -0.81491,0.705555 -0.097,0 0.11095,-0.3175 0.46213,-0.705555 z m 31.88139,-0.617362 c -0.43881,-0.559526 -0.42633,-0.572004 0.13319,-0.133194 0.58764,0.460858 0.77452,0.750556 0.48417,0.750556 -0.0733,0 -0.35107,-0.277813 -0.61736,-0.617362 z M 64.844967,45.620137 c 0.25466,-0.101907 0.558934,-0.08938 0.676158,0.02783 0.117225,0.117228 -0.09114,0.200604 -0.46302,0.185286 -0.410969,-0.01693 -0.49456,-0.10052 -0.213138,-0.213134 z M 63.786634,15.634028 c 0.254659,-0.101908 0.558934,-0.08937 0.676158,0.02785 0.117225,0.117226 -0.09114,0.200604 -0.463021,0.185286 -0.410968,-0.01693 -0.494559,-0.10052 -0.213137,-0.213136 z m 1.389062,0.0073 c 0.242535,-0.09786 0.63941,-0.09786 0.881944,0 0.242535,0.09787 0.0441,0.177936 -0.440972,0.177936 -0.485069,0 -0.683507,-0.08007 -0.440972,-0.177936 z m 80.962494,-0.01904 c 0.53358,-0.08083 1.4067,-0.08083 1.94028,0 0.53358,0.08083 0.097,0.146963 -0.97014,0.146963 -1.06715,0 -1.50371,-0.06613 -0.97014,-0.146963 z"
         id="path1081" />
      <path
         style="fill:#a3a3a3;fill-opacity:1;stroke-width:0.352778"
         d="m 45.794968,239.29512 c 0.254659,-0.10191 0.558934,-0.0894 0.676158,0.0278 0.117225,0.11723 -0.09114,0.2006 -0.463021,0.18529 -0.410968,-0.0169 -0.494559,-0.10052 -0.213137,-0.21314 z m 57.127952,-12.33988 c 0.24253,-0.0979 0.63941,-0.0979 0.88194,0 0.24254,0.0979 0.0441,0.17794 -0.44097,0.17794 -0.48507,0 -0.68351,-0.0801 -0.44097,-0.17794 z m 6.01927,-0.007 c 0.25466,-0.10191 0.55893,-0.0894 0.67616,0.0278 0.11722,0.11722 -0.0911,0.2006 -0.46303,0.18529 -0.41096,-0.0169 -0.49455,-0.10052 -0.21313,-0.21314 z m 99.98409,-6.46181 c 0,-0.67909 0.0726,-0.95691 0.16134,-0.61736 0.0887,0.33955 0.0887,0.89518 0,1.23473 -0.0887,0.33954 -0.16134,0.0617 -0.16134,-0.61737 z m -0.0261,-10.58333 c 0,-0.48507 0.0801,-0.6835 0.17794,-0.44097 0.0979,0.24253 0.0979,0.63941 0,0.88194 -0.0979,0.24254 -0.17794,0.0441 -0.17794,-0.44097 z m 12.99708,-32.58874 c 0,-0.0733 0.27781,-0.35107 0.61736,-0.61737 0.55952,-0.43881 0.572,-0.42633 0.13319,0.1332 -0.46086,0.58764 -0.75055,0.77452 -0.75055,0.48417 z M -14.86166,172.9493 c -0.43881,-0.55952 -0.426332,-0.572 0.133193,-0.13319 0.339549,0.26629 0.617361,0.54411 0.617361,0.61736 0,0.29035 -0.289696,0.10347 -0.750554,-0.48417 z m 198.23995,-11.26529 c 0.25466,-0.1019 0.55894,-0.0894 0.67616,0.0278 0.11723,0.11722 -0.0911,0.2006 -0.46302,0.18528 -0.41097,-0.0169 -0.49456,-0.10052 -0.21314,-0.21313 z m 2.09462,0.007 c 0.24254,-0.0979 0.63941,-0.0979 0.88195,0 0.24253,0.0979 0.0441,0.17794 -0.44098,0.17794 -0.48506,0 -0.6835,-0.0801 -0.44097,-0.17794 z m -13.17449,-5.14621 -0.67203,-0.79375 0.79375,0.67204 c 0.43656,0.36962 0.79375,0.7268 0.79375,0.79375 0,0.28231 -0.28392,0.0739 -0.91547,-0.67204 z M 7.716115,153.19375 c -0.4388097,-0.55953 -0.4263319,-0.572 0.1331948,-0.13319 0.3395486,0.26629 0.6173611,0.5441 0.6173611,0.61736 0,0.29035 -0.2896976,0.10347 -0.7505559,-0.48417 z m -1.7638888,-1.76389 c -0.4388097,-0.55952 -0.4263319,-0.572 0.1331948,-0.13319 0.5876395,0.46086 0.7745165,0.75055 0.4841663,0.75055 -0.073254,0 -0.3510668,-0.27781 -0.6173611,-0.61736 z m 38.8784058,-8.40787 c 0.01693,-0.41096 0.100521,-0.49456 0.213134,-0.21313 0.101907,0.25466 0.08938,0.55893 -0.02783,0.67615 -0.117224,0.11723 -0.200603,-0.0911 -0.185286,-0.46302 z m 0,-5.64444 c 0.01693,-0.41097 0.100521,-0.49456 0.213134,-0.21314 0.101907,0.25466 0.08938,0.55894 -0.02783,0.67616 -0.117224,0.11722 -0.200603,-0.0911 -0.185286,-0.46302 z M -5.2359617,124.17778 c 0,-0.48507 0.080073,-0.68351 0.1779375,-0.44097 0.097864,0.24253 0.097864,0.63941 0,0.88194 -0.097864,0.24254 -0.1779375,0.0441 -0.1779375,-0.44097 z M 177.27083,113.94723 c 0.35119,-0.38806 0.7179,-0.70556 0.81491,-0.70556 0.097,0 -0.11095,0.3175 -0.46213,0.70556 -0.35119,0.38805 -0.7179,0.70555 -0.81491,0.70555 -0.097,0 0.11094,-0.3175 0.46213,-0.70555 z m -52.5974,-4.32153 -0.67204,-0.79375 0.79375,0.67204 c 0.74593,0.63155 0.95435,0.91546 0.67204,0.91546 -0.067,0 -0.42413,-0.35719 -0.79375,-0.79375 z m -37.890096,0.30778 c 0,-0.0733 0.277812,-0.35107 0.617361,-0.61736 0.559527,-0.43881 0.572004,-0.42634 0.133195,0.13319 -0.460859,0.58764 -0.750556,0.77452 -0.750556,0.48417 z m -30.383888,-2.24806 c -0.43881,-0.55952 -0.426332,-0.572 0.133195,-0.13319 0.587639,0.46086 0.774516,0.75055 0.484166,0.75055 -0.07325,0 -0.351067,-0.27781 -0.617361,-0.61736 z m 98.469994,0.48417 c 0,-0.0733 0.27781,-0.35107 0.61736,-0.61736 0.55953,-0.43881 0.57201,-0.42633 0.1332,0.13319 -0.46086,0.58764 -0.75056,0.77452 -0.75056,0.48417 z M 54.28278,105.56876 c -0.43881,-0.55953 -0.426332,-0.57201 0.133194,-0.1332 0.58764,0.46086 0.774517,0.75056 0.484167,0.75056 -0.07325,0 -0.351067,-0.27782 -0.617361,-0.61736 z m 61.84988,-19.667363 c 0.007,-0.582084 0.0863,-0.777501 0.1757,-0.434259 0.0894,0.343242 0.0836,0.819492 -0.0131,1.058333 -0.0966,0.238841 -0.16982,-0.04199 -0.16263,-0.624074 z M 13.080634,72.466445 c 0.01693,-0.410968 0.10052,-0.494559 0.213134,-0.213137 0.101907,0.254659 0.08938,0.55893 -0.02783,0.676158 -0.117228,0.117225 -0.200604,-0.09114 -0.185286,-0.463021 z M 81.799445,53.004872 c -0.43881,-0.559526 -0.426332,-0.572004 0.133195,-0.133195 0.339548,0.266295 0.617361,0.544107 0.617361,0.617362 0,0.29035 -0.289698,0.103473 -0.750556,-0.484167 z M 63.786634,45.620137 c 0.254659,-0.101907 0.558934,-0.08938 0.676158,0.02783 0.117225,0.117228 -0.09114,0.200604 -0.463021,0.185286 -0.410968,-0.01693 -0.494559,-0.10052 -0.213137,-0.213134 z m 2.116666,0 c 0.25466,-0.101907 0.558934,-0.08938 0.676159,0.02783 0.117224,0.117228 -0.09114,0.200604 -0.463021,0.185286 -0.410969,-0.01693 -0.494559,-0.10052 -0.213138,-0.213134 z m 80.23489,-0.01168 c 0.53358,-0.08083 1.4067,-0.08083 1.94028,0 0.53358,0.08083 0.097,0.146964 -0.97014,0.146964 -1.06715,0 -1.50371,-0.06614 -0.97014,-0.146964 z M 183.75222,32.54376 c -0.43881,-0.559525 -0.42633,-0.572003 0.13319,-0.133193 0.58764,0.460858 0.77452,0.750554 0.48417,0.750554 -0.0733,0 -0.35107,-0.277812 -0.61736,-0.617361 z"
         id="path1079" />
      <path
         style="fill:#8c8c8c;fill-opacity:1;stroke-width:0.352778"
         d="m 162.56441,239.29512 c 0.25466,-0.10191 0.55893,-0.0894 0.67616,0.0278 0.11722,0.11723 -0.0911,0.2006 -0.46303,0.18529 -0.41096,-0.0169 -0.49455,-0.10052 -0.21313,-0.21314 z m -57.53269,-12.36085 c 0.62626,-0.0779 1.73751,-0.0792 2.46944,-0.003 0.73193,0.0764 0.21953,0.14013 -1.13866,0.1417 -1.35819,0.001 -1.95705,-0.0609 -1.33078,-0.13885 z M 2.8500785,220.98587 c 0.016933,-0.41096 0.1005205,-0.49455 0.2131342,-0.21313 0.1019069,0.25466 0.089376,0.55893 -0.027834,0.67615 -0.117228,0.11723 -0.2006035,-0.0911 -0.1852859,-0.46302 z m 176.0361015,0 c 0.0169,-0.41096 0.10052,-0.49455 0.21314,-0.21313 0.1019,0.25466 0.0894,0.55893 -0.0278,0.67615 -0.11722,0.11723 -0.2006,-0.0911 -0.18528,-0.46302 z m 29.98611,-9.87777 c 0.0169,-0.41097 0.10052,-0.49456 0.21314,-0.21314 0.1019,0.25466 0.0894,0.55893 -0.0278,0.67616 -0.11722,0.11722 -0.2006,-0.0911 -0.18528,-0.46302 z M 2.8500785,209.34421 c 0.016933,-0.41097 0.1005205,-0.49456 0.2131342,-0.21314 0.1019069,0.25466 0.089376,0.55893 -0.027834,0.67616 -0.117228,0.11722 -0.2006035,-0.0911 -0.1852859,-0.46302 z M 178.88618,208.99143 c 0.0169,-0.41097 0.10052,-0.49456 0.21314,-0.21314 0.1019,0.25466 0.0894,0.55894 -0.0278,0.67616 -0.11722,0.11723 -0.2006,-0.0911 -0.18528,-0.46302 z M 28.861635,161.68401 c 0.25466,-0.1019 0.558931,-0.0894 0.676159,0.0278 0.117224,0.11722 -0.09114,0.2006 -0.463021,0.18528 -0.410969,-0.0169 -0.494559,-0.10052 -0.213138,-0.21313 z m 158.044435,0 c 0.25466,-0.1019 0.55894,-0.0894 0.67616,0.0278 0.11723,0.11722 -0.0911,0.2006 -0.46302,0.18528 -0.41097,-0.0169 -0.49456,-0.10052 -0.21314,-0.21313 z M 60.663037,153.01736 c 1.461897,-1.55758 1.778631,-1.83765 1.778631,-1.57276 0,0.0566 -0.754062,0.81068 -1.675694,1.6757 l -1.675694,1.57276 z m 143.242513,0.33059 c 0,-0.0607 0.51594,-0.57665 1.14653,-1.14653 l 1.14653,-1.03614 -1.03614,1.14653 c -0.96583,1.06872 -1.25692,1.30868 -1.25692,1.03614 z m -97.78559,-24.11949 c 0.25466,-0.10191 0.55894,-0.0894 0.67616,0.0278 0.11723,0.11722 -0.0911,0.2006 -0.46302,0.18528 -0.41097,-0.0169 -0.49456,-0.10052 -0.21314,-0.21313 z M -5.26381,125.38311 c 0.016933,-0.41097 0.1005205,-0.49456 0.2131342,-0.21314 0.1019069,0.25466 0.089376,0.55893 -0.027834,0.67616 -0.117228,0.11722 -0.2006035,-0.0911 -0.1852859,-0.46302 z m 38.567796,-12.58241 -0.672038,-0.79375 0.793749,0.67204 c 0.745928,0.63155 0.954349,0.91546 0.672039,0.91546 -0.06694,0 -0.424131,-0.35719 -0.79375,-0.79375 z m 54.537681,-3.92556 c 0,-0.0733 0.277813,-0.35106 0.617361,-0.61736 0.559527,-0.43881 0.572005,-0.42633 0.133195,0.1332 -0.460858,0.58764 -0.750556,0.77451 -0.750556,0.48416 z m 69.320833,-3.0418 c 0.35118,-0.38806 0.71789,-0.70556 0.81491,-0.70556 0.097,0 -0.11095,0.3175 -0.46213,0.70556 -0.35119,0.38805 -0.7179,0.70555 -0.81491,0.70555 -0.097,0 0.11094,-0.3175 0.46213,-0.70555 z m 76.33138,-17.550694 c -0.43881,-0.559526 -0.42633,-0.572004 0.1332,-0.133194 0.58764,0.460858 0.77451,0.750555 0.48416,0.750555 -0.0733,0 -0.35106,-0.277812 -0.61736,-0.617361 z M 116.09174,87.283111 c 0.0169,-0.410969 0.10052,-0.49456 0.21313,-0.213138 0.10191,0.254659 0.0894,0.55893 -0.0278,0.676158 -0.11722,0.117225 -0.2006,-0.09114 -0.18529,-0.46302 z M 95.63063,86.224777 c 0.01693,-0.410968 0.10052,-0.494559 0.213134,-0.213137 0.101907,0.254659 0.08938,0.55893 -0.02783,0.676158 -0.117225,0.117225 -0.200604,-0.09114 -0.185286,-0.463021 z M 10.164414,73.136801 c 0.25466,-0.101907 0.55893,-0.08938 0.676158,0.02783 0.117225,0.117224 -0.09114,0.200603 -0.46302,0.185286 -0.4109689,-0.01693 -0.4945596,-0.100517 -0.213138,-0.21313 z m 190.852766,0 c 0.25466,-0.101907 0.55894,-0.08938 0.67616,0.02783 0.11723,0.117224 -0.0911,0.200603 -0.46302,0.185286 -0.41097,-0.01693 -0.49456,-0.100521 -0.21314,-0.213134 z M 179.87166,28.663208 c -0.43881,-0.559525 -0.42633,-0.572003 0.1332,-0.133193 0.33955,0.266292 0.61736,0.544105 0.61736,0.617361 0,0.290348 -0.2897,0.103471 -0.75056,-0.484168 z"
         id="path1077" />
      <path
         style="fill:#333333;fill-opacity:1;stroke-width:0.250141"
         d="m 347.05208,261.88564 c -6.63047,-0.95212 -12.43915,-3.71173 -16.66355,-7.91658 -4.75536,-4.73335 -7.42789,-10.19131 -9.18253,-18.75298 -0.66,-3.22042 -0.68832,-3.66684 -0.70476,-11.1096 -0.0184,-8.3601 0.19922,-10.42789 1.75596,-16.67967 0.33164,-1.33192 0.603,-2.59674 0.603,-2.81071 0,-0.23958 -0.74471,-0.7414 -1.93859,-1.30629 -10.74777,-5.08535 -19.39474,-14.60646 -24.16232,-26.60496 -2.21274,-5.56876 -3.28444,-11.33041 -3.25693,-17.50984 0.0539,-12.09971 4.81771,-22.19611 13.72406,-29.08653 2.61802,-2.02543 7.71107,-4.60347 10.75605,-5.44456 2.35113,-0.64945 6.17151,-1.22726 8.15983,-1.23414 l 1.40604,-0.005 0.17094,-2.3138 c 1.35374,-18.32535 11.44045,-32.360035 26.53356,-36.918951 3.69614,-1.116427 5.82031,-1.409852 10.13069,-1.399412 4.43587,0.01074 6.8968,0.407987 10.97007,1.77079 5.99249,2.004922 12.24966,5.989091 16.77822,10.68332 l 1.10832,1.148865 2.26858,-2.183818 c 10.15849,-9.778948 23.10382,-13.59349 35.34142,-10.413895 9.76078,2.536065 17.72278,8.985422 22.67225,18.364921 3.08793,5.85179 4.65883,11.54765 5.2948,19.19828 l 0.17154,2.06366 1.53734,7.1e-4 c 3.69238,0.003 9.2978,1.39145 13.16888,3.26328 7.64456,3.69645 13.85589,10.56908 16.83107,18.623 2.05389,5.55995 2.95312,11.93842 2.44023,17.3092 -0.6842,7.16456 -2.1079,12.23066 -5.18797,18.4609 -2.59097,5.2409 -5.90242,9.72574 -10.2599,13.89543 -3.85432,3.68821 -7.51608,6.24912 -11.86274,8.29636 l -2.16099,1.01781 0.22615,0.77716 c 0.63415,2.17928 1.78649,8.4259 2.10449,11.40813 0.42521,3.98756 0.46911,10.23087 0.10027,14.25801 -1.24569,13.60071 -7.19656,23.44006 -17.15863,28.37059 -5.34767,2.64673 -11.55816,3.60292 -18.2227,2.80565 -4.46602,-0.53426 -8.30273,-1.45672 -15.75738,-3.78857 -12.40078,-3.87901 -15.93852,-4.63028 -21.75566,-4.62002 -5.37282,0.01 -8.76698,0.72647 -20.14288,4.25509 -8.06332,2.5011 -11.05,3.28169 -14.88336,3.88991 -3.41898,0.54247 -8.12033,0.64454 -10.95287,0.23779 z m 11.13694,-21.61712 c 1.61459,-0.41973 5.49802,-1.56233 8.62985,-2.53913 22.74552,-7.09423 30.81689,-7.0363 54.09642,0.38823 9.76229,3.11348 14.24772,3.76995 17.7281,2.5946 4.56757,-1.54248 6.66128,-6.90809 6.62615,-16.98095 -0.0308,-8.85025 -1.99704,-16.84572 -6.20664,-25.23945 -9.89465,-19.72937 -31.84829,-36.32074 -46.91377,-35.4549 -9.48881,0.54535 -20.96054,6.81515 -31.15329,17.02665 -10.77252,10.79232 -17.1813,22.80979 -19.28557,36.16348 -0.60645,3.8485 -0.60977,11.64233 -0.006,14.91202 0.53224,2.88409 1.20931,4.85578 2.19479,6.39152 1.09761,1.71048 2.30997,2.57909 4.97612,3.5652 0.20637,0.0763 1.72597,0.0931 3.3769,0.0373 2.29373,-0.0775 3.69406,-0.28145 5.9373,-0.8646 z m -17.5517,-54.45508 c 6.03617,-1.76272 9.5574,-7.24338 9.54845,-14.86182 -0.008,-7.02285 -2.99453,-14.0686 -8.30531,-19.59538 -5.07619,-5.28265 -11.6729,-7.95494 -16.89406,-6.84371 -5.06308,1.07759 -8.32557,4.26555 -10.03396,9.80474 -0.71945,2.3327 -0.65604,8.27772 0.11871,11.13126 2.75836,10.15935 9.86348,18.09714 18.14153,20.26759 2.23888,0.58701 5.597,0.63103 7.42464,0.0973 z m 112.47709,-0.0812 c 8.4419,-2.19281 15.77152,-10.34699 18.34504,-20.40877 0.74751,-2.92257 0.82183,-8.13085 0.15159,-10.62306 -1.49639,-5.56418 -4.98908,-9.11394 -10.01864,-10.18236 -5.32276,-1.1307 -11.92183,1.5242 -17.09305,6.8768 -5.11403,5.2934 -8.33685,12.99499 -8.3222,19.88756 0.005,2.2153 0.80447,5.77112 1.74463,7.75686 1.50204,3.17247 4.70649,5.90505 7.98551,6.80959 1.74276,0.48076 5.11756,0.42615 7.20712,-0.11662 z M 373.8758,152.77396 c 4.18699,-1.15364 7.96899,-4.59408 9.94173,-9.04388 1.90772,-4.30312 2.62715,-9.24855 2.10205,-14.44968 -1.64598,-16.30366 -14.31245,-28.61734 -25.71299,-24.99683 -5.28739,1.67915 -9.20231,6.401 -10.99647,13.26306 -0.58039,2.21979 -0.65444,2.98014 -0.65778,6.75379 -0.003,3.45215 0.0998,4.73202 0.54648,6.8011 2.40456,11.13774 9.59255,19.83287 18.03626,21.81797 2.35188,0.55292 4.36339,0.50949 6.74072,-0.14553 z m 46.24138,-0.10724 c 3.25408,-0.85828 6.09436,-2.58577 8.86699,-5.39298 2.31971,-2.34864 3.68816,-4.25171 5.27765,-7.33954 2.93833,-5.70813 4.20209,-11.99595 3.65747,-18.19772 -0.3175,-3.6155 -1.01942,-6.1953 -2.50116,-9.19267 -2.12486,-4.29829 -5.08778,-7.00388 -9.03582,-8.25107 -10.56705,-3.33813 -22.15015,6.6414 -25.40012,21.88373 -0.34204,1.60417 -0.45135,3.20096 -0.44518,6.50365 0.007,3.98655 0.0693,4.59921 0.6937,6.86051 0.37705,1.36567 1.21294,3.56065 1.85754,4.87774 0.95162,1.94441 1.55022,2.77695 3.18347,4.42755 4.02915,4.07197 8.36094,5.26737 13.84546,3.8208 z"
         id="path1069" />
    </g>
  </g>
</svg>
